<svg width="545" height="373" viewBox="0 0 545 373" fill="none" xmlns="http://www.w3.org/2000/svg">
<path d="M13.3346 354.733L175.504 133.497C178.169 129.957 179.906 128.467 182.57 128.467C185.235 128.467 187.088 130.33 189.289 133.124C209.366 160.335 220.006 191.376 220.101 223.016C220.101 306.014 139.016 363.303 22.2539 363.303C20.0531 363.303 11.5971 363.303 11.5971 359.018C11.5628 357.473 12.1747 355.964 13.3346 354.733V354.733Z" fill="#FF6300"/>
<path d="M384.935 149.984L526.949 353.987C530.54 359.017 528.339 363.302 519.42 363.302C415.168 363.302 366.749 331.817 327.596 275.553L218.132 118.126C212.862 111.846 209.782 104.544 209.212 96.9809C210.335 87.6507 214.314 78.6894 220.796 70.8984L234.58 51.2433C254.157 22.1799 275.47 9.32495 325.743 9.32495H361.42C366.749 9.32495 367.212 12.5853 364.548 15.0072C352.18 26.9357 345.816 42.1565 346.709 57.6708C346.709 79.0958 356.555 108.811 384.935 149.984Z" fill="#FF6300"/>
</svg>
