<svg xmlns="http://www.w3.org/2000/svg" width="96" height="96" fill="none" viewBox="0 0 96 96"><circle cx="48" cy="48" r="48" fill="#0071CE"/><circle cx="48" cy="48" r="42" fill="url(#paint0_linear_5667_201813)"/><path fill="#1BA0E2" d="m26.45 52.657 3.461-6.53c1.991-3.754 3.134-6.013 7.672-5.527l23.361 1.43c3.294.351 4.547 2.689 6.173 5.326a163.104 163.104 0 0 1 2.424 4.058c1.991 3.454.06 5.369-1.153 5.897l-8.7 5.537c-5.98 3.806-8.882 1.597-10.942-.042-2.939 3.346-6.892 2.79-8.502 2.093-1.581-.838-5.973-3.057-10.877-5.248-4.904-2.188-3.99-5.574-2.918-6.992v-.002Z" opacity=".3"/><path fill="#1BA0E2" fill-rule="evenodd" d="M63.99 48.204a5.975 5.975 0 0 1-2.602 7.93l-5.513 2.87c-2.89 1.506-6.37.382-7.78-2.555-2.661-5.547-6.512-13.73-7.636-16.34 1.523-8.182 8.429-9.569 14.601-7.22 1.203.456 2.117 1.43 2.682 2.584l6.249 12.731Z" clip-rule="evenodd"/><path fill="#FCA000" fill-rule="evenodd" d="M50.116 36.087a2.192 2.192 0 1 1-2.963-.914 2.192 2.192 0 0 1 2.963.912" clip-rule="evenodd"/><path fill="#1870C9" fill-rule="evenodd" d="M52.954 33.561c-.741-1.973-2.485-3.107-4.534-2.61-2.12.514-4.775 1.27-6.695 1.833a5.882 5.882 0 0 0-3.667 3.165l-6.067 12.986a5.972 5.972 0 0 0 2.868 7.932l6.611 3.113a5.975 5.975 0 0 0 7.972-2.908l5.757-12.516a5.982 5.982 0 0 0 .166-4.6l-2.406-6.395h-.005Z" clip-rule="evenodd"/><path fill="#1BA0E2" fill-rule="evenodd" d="m44.483 31.993 3.105 8.074a5.973 5.973 0 0 1-.231 4.815l-7.234 14.464-5.266-2.48a5.972 5.972 0 0 1-2.866-7.932l6.068-12.986a5.875 5.875 0 0 1 3.666-3.165c.82-.239 1.77-.514 2.758-.79Z" clip-rule="evenodd" opacity=".5"/><path fill="#A6E611" fill-rule="evenodd" d="M41.497 45.882c-.132.266-.313.444-.55.541a.836.836 0 0 1-.711-.034.89.89 0 0 1-.478-.536c-.082-.241-.055-.501.079-.774.128-.266.312-.439.549-.523a.894.894 0 0 1 .714.047.882.882 0 0 1 .475.526c.08.233.053.486-.073.75m1.741-.26a2.658 2.658 0 0 0-.152-.963 2.605 2.605 0 0 0-1.313-1.458 2.563 2.563 0 0 0-1.957-.126c-.31.102-.594.265-.851.478-.255.215-.46.483-.617.801-.155.32-.237.649-.253.982-.015.331.035.652.145.96a2.549 2.549 0 0 0 1.316 1.458c.318.154.649.243.987.267.337.02.662-.016.97-.116a2.472 2.472 0 0 0 1.476-1.303c.155-.32.236-.648.247-.982M36.531 51.871l10.544-5.9 1.772.857-10.559 5.891-1.757-.848ZM45.5 53.613c-.13.265-.313.446-.552.54a.837.837 0 0 1-.712-.033.883.883 0 0 1-.478-.536c-.079-.242-.055-.5.079-.778.128-.265.31-.438.546-.522a.902.902 0 0 1 .717.05.873.873 0 0 1 .473.522c.079.234.053.486-.074.751m1.742-.257a2.604 2.604 0 0 0-1.463-2.422 2.437 2.437 0 0 0-.988-.255 2.556 2.556 0 0 0-.969.132 2.618 2.618 0 0 0-.848.478 2.383 2.383 0 0 0-.618.804 2.471 2.471 0 0 0-.105 1.938c.11.307.276.588.5.84.22.255.493.46.811.615.32.155.651.242.99.266.339.023.662-.014.972-.114.307-.1.591-.26.848-.477.26-.221.468-.494.626-.825.157-.32.239-.646.246-.983" clip-rule="evenodd"/><path fill="#FFF0E4" fill-rule="evenodd" d="M50.139 38.01a2.194 2.194 0 1 1-3.97-1.868 2.194 2.194 0 0 1 3.97 1.869Z" clip-rule="evenodd"/><path stroke="#1BA0E2" stroke-linecap="round" stroke-linejoin="round" stroke-width="1.991" d="M49.062 35.896c-.499 1.11-2.264 2.598-3.617 1.757-1.728-1.077-.184-5.138 1.4-7.856 1.584-2.721 3.664-3.706 5.04-3.005 1.377.701 1.382 2.348.387 4.573"/><path fill="#0071CE" d="M27.148 20.86c5.295.736 7.482 3.056 8.141 8.006a.17.17 0 0 0 .058.096.165.165 0 0 0 .21 0 .17.17 0 0 0 .058-.096c.862-5.038 3.28-7.417 8.285-8.05a.134.134 0 0 0 0-.258c-5.135-.736-7.626-3.108-8.372-8.447a.111.111 0 0 0-.032-.079.107.107 0 0 0-.154 0 .111.111 0 0 0-.031.079c-.725 5.324-2.68 7.777-8.17 8.454a.144.144 0 0 0-.101.046.149.149 0 0 0 .005.209.144.144 0 0 0 .103.04ZM63.105 32.254c3.737.52 5.28 2.158 5.746 5.651a.12.12 0 0 0 .041.068.116.116 0 0 0 .19-.068c.607-3.556 2.315-5.235 5.848-5.682a.092.092 0 0 0 .05-.033.095.095 0 0 0 0-.116.092.092 0 0 0-.05-.033c-3.625-.52-5.384-2.194-5.91-5.963 0-.02-.008-.04-.023-.055a.076.076 0 0 0-.13.055c-.512 3.759-1.892 5.49-5.767 5.968a.101.101 0 0 0-.072.032.105.105 0 0 0 .004.147c.02.02.046.03.073.03ZM69.07 43.17c2.491.346 3.52 1.438 3.83 3.767a.08.08 0 0 0 .028.045.078.078 0 0 0 .126-.045c.406-2.37 1.544-3.49 3.899-3.788a.063.063 0 0 0 0-.121c-2.416-.347-3.589-1.463-3.94-3.976a.053.053 0 0 0-.015-.037.05.05 0 0 0-.087.037c-.34 2.506-1.261 3.66-3.844 3.979a.068.068 0 0 0-.048.021.07.07 0 0 0 .002.098c.013.013.03.02.049.02ZM17.122 68.296c4.36.607 6.161 2.518 6.704 6.593a.136.136 0 0 0 .268 0c.71-4.148 2.702-6.107 6.824-6.629a.107.107 0 0 0 .059-.038.11.11 0 0 0-.06-.174c-4.228-.607-6.28-2.56-6.894-6.957a.092.092 0 0 0-.026-.064.089.089 0 0 0-.127 0 .092.092 0 0 0-.026.064c-.596 4.385-2.207 6.405-6.728 6.963a.118.118 0 0 0-.083.038.123.123 0 0 0 .004.171.118.118 0 0 0 .085.033Z"/><defs><linearGradient id="paint0_linear_5667_201813" x1="6" x2="92.832" y1="6" y2="9.038" gradientUnits="userSpaceOnUse"><stop stop-color="#BDE9FF"/><stop offset=".5" stop-color="#D6F1FF"/><stop offset="1" stop-color="#D6F1FF"/></linearGradient></defs></svg>